<svg xmlns="http://www.w3.org/2000/svg" viewBox="0 0 550 50"><defs><style>.cls-1{fill:#141414;}.cls-2{fill:#222;}.cls-3{fill:#ff2c89;}.cls-4{fill:#006aff;}.cls-5{fill:#00ffb5;}.cls-6{fill:#ff003f;}</style></defs><g id="图层_2" data-name="图层 2"><g id="图层_1-2" data-name="图层 1"><path class="cls-1" d="M370.52,19.41a1.33,1.33,0,0,1,1.35,1.34V45h-2.69V44H349.65v1H347V20.75a1.3,1.3,0,0,1,.39-.95,1.28,1.28,0,0,1,.95-.39Zm-1.34,21.83V22.1H349.65V41.24Zm-1.66-4.07v2.69H351.28V37.17h6.78V32.23h-5.83V29.55h5.83V26.16H351.7V23.44h15.43v2.72h-6.39v3.39h5.83v2.68h-5.83v4.94h2.62L362,34.07,364.49,33l1.59,3.74-1,.42Z"/><path class="cls-1" d="M388.57,29.19a11,11,0,0,1,.73,1.29,12.89,12.89,0,0,1,.72,1.86,10.63,10.63,0,0,1,.42,2.19,6.2,6.2,0,0,1-.24,2.33c-.64,2.12-2.26,3.65-4.88,4.59l-.92-2.51a4.84,4.84,0,0,0,3.22-2.83,4,4,0,0,0,.12-1.69,8.22,8.22,0,0,0-.42-1.71,10.38,10.38,0,0,0-.67-1.49,10.13,10.13,0,0,0-.62-1,1.37,1.37,0,0,1-.21-1.13l1.76-7h-3.49V45.86H381.4V20.75a1.36,1.36,0,0,1,.39-1,1.27,1.27,0,0,1,.95-.4h6.54a1.3,1.3,0,0,1,1.06.53,1.23,1.23,0,0,1,.24,1.16Zm6.64,3.54c0,.07-.06.54-.19,1.41s-.33,1.91-.6,3.12-.63,2.49-1.08,3.83a16.91,16.91,0,0,1-1.66,3.61l-2.3-1.45A14,14,0,0,0,390.87,40c.4-1.24.72-2.42,1-3.53s.42-2.07.53-2.85.16-1.17.16-1.2Zm5.4-3.29V41.69a3.32,3.32,0,0,1-.6,2,4.93,4.93,0,0,1-1.48,1.36,7.93,7.93,0,0,1-1.89.81,10.21,10.21,0,0,1-1.82.36l-.24-2.69.81-.14a5.58,5.58,0,0,0,1.13-.34,4.32,4.32,0,0,0,1-.56,1,1,0,0,0,.42-.8V29.44h-7.38V26.76H408.1v2.68Zm5.9-6.28H392.07V20.47h14.44ZM406,32.44s.05.43.16,1.2.28,1.73.53,2.85.56,2.29.95,3.53a13.56,13.56,0,0,0,1.47,3.23l-2.27,1.45a18,18,0,0,1-1.67-3.61,35.4,35.4,0,0,1-1.1-3.83c-.27-1.21-.46-2.25-.58-3.12s-.18-1.34-.18-1.41Z"/><path class="cls-1" d="M425.65,42.68l-3-6a25.08,25.08,0,0,1-1.35,3.4c-.51,1.07-1,2-1.48,2.83s-.88,1.47-1.23,2l-.61.86-2.15-1.59s.24-.38.71-1.08a29.54,29.54,0,0,0,1.59-2.7,35.45,35.45,0,0,0,1.67-3.72,16,16,0,0,0,1-4.12h-4.13V29.83h4.2V23.26h-.67c-.26.71-.57,1.44-.94,2.21a19.84,19.84,0,0,1-1.25,2.24l-2.26-1.45a19.57,19.57,0,0,0,1.45-2.75,23.56,23.56,0,0,0,.95-2.6c.24-.79.47-1.69.71-2.7l2.65.46s0,.24-.11.58-.19.79-.35,1.33h5.37v2.68h-2.86v6.57h3.49v2.68h-3.46l4.41,9ZM444,21.6H427.45V18.92H444Zm.32,20.66v2.68H427.45V42.26h10c.33-.8.61-1.58.85-2.35s.43-1.45.6-2,.31-1.27.45-2l2.65.5s0,.2-.1.54-.18.79-.32,1.33-.31,1.16-.51,1.85-.44,1.43-.73,2.21Zm-1.2-9a1.33,1.33,0,0,1-1.34,1.35H429.71a1.33,1.33,0,0,1-1.34-1.35v-8a1.33,1.33,0,0,1,1.34-1.34h12.05a1.33,1.33,0,0,1,1.34,1.34Zm-13.88,3.54L431.8,36l1.48,4.84-2.58.78Zm11.19-10.25h-9.35v5.37h9.35Z"/><path class="cls-1" d="M459.91,18.6s0,.27-.09.67a14.57,14.57,0,0,1-.32,1.52,16.92,16.92,0,0,1-.67,2.08,14.74,14.74,0,0,1-1.18,2.4V45.61h-2.72v-17a14.43,14.43,0,0,1-2.68,1.91l-1.31-2.37a10.52,10.52,0,0,0,2.42-1.8,14.07,14.07,0,0,0,1.71-2.1,12,12,0,0,0,1.13-2.14,18.7,18.7,0,0,0,.65-1.89,14,14,0,0,0,.38-1.85Zm19.49,1.94v2.69H459.87V20.54h8.48L467.71,19l2.48-1,1.05,2.58Zm-2.89,14.52a1.33,1.33,0,0,1,.95.38,1.3,1.3,0,0,1,.39,1v9.21h-2.69v-.74H463.9v.74h-2.68V36.4a1.3,1.3,0,0,1,.38-1,1.34,1.34,0,0,1,1-.38ZM461.43,25.2h16.46v2.69H461.43Zm0,4.84h16.46v2.69H461.43Zm13.73,12.15V37.74H463.9v4.45Z"/><path class="cls-1" d="M511.79,19.27a1.33,1.33,0,0,1,1.34,1.34V41a3.57,3.57,0,0,1-.56,2,5.83,5.83,0,0,1-1.42,1.47,7.46,7.46,0,0,1-1.8,1,10.27,10.27,0,0,1-1.73.49l-.49-2.65a5,5,0,0,0,.79-.21,6.21,6.21,0,0,0,1.11-.48,4.22,4.22,0,0,0,1-.68,1.23,1.23,0,0,0,.43-.92V22h-19V45.16h-2.72V20.61a1.28,1.28,0,0,1,.41-.95,1.34,1.34,0,0,1,1-.39Zm-11,4.73-.23.85c-.13.5-.31,1.15-.53,2s-.51,1.76-.85,2.84-.73,2.25-1.18,3.5l2.44,7.63-2.55.81-1.41-4.38q-.49,1.23-1,2.46c-.36.81-.73,1.62-1.13,2.45L491.9,41c.64-1.32,1.22-2.64,1.75-4s1-2.63,1.5-3.9l-2.89-9,2.58-.81,1.76,5.51c.5-1.6.88-2.9,1.15-3.88s.41-1.5.41-1.52Zm5.86,17.59-1.38-4.34c-.33.8-.67,1.6-1,2.42s-.73,1.62-1.13,2.45L500.66,41c.64-1.32,1.23-2.63,1.77-4s1-2.62,1.48-3.89l-2.86-9,2.54-.81,1.77,5.55c.52-1.61.91-2.91,1.17-3.91s.38-1.51.38-1.53l2.65.63-.23.85c-.13.5-.3,1.15-.53,2s-.5,1.77-.84,2.86-.74,2.27-1.19,3.51l2.44,7.6Z"/><path class="cls-1" d="M537.6,33.54a13.83,13.83,0,0,0,1.06,2.12,12.37,12.37,0,0,0,2.18,2.57,22.32,22.32,0,0,0,3.65,2.71A30.17,30.17,0,0,0,550,43.46L549.12,46a32.92,32.92,0,0,1-5.21-2.3,26.64,26.64,0,0,1-3.8-2.52,17.2,17.2,0,0,1-2.61-2.56,15.24,15.24,0,0,1-1.63-2.4,15.84,15.84,0,0,1-1.62,2.4,17.68,17.68,0,0,1-2.61,2.56,26.64,26.64,0,0,1-3.8,2.52,33.34,33.34,0,0,1-5.21,2.3l-.88-2.51a29.91,29.91,0,0,0,5.54-2.52,21.77,21.77,0,0,0,3.64-2.71,12.45,12.45,0,0,0,2.15-2.57,12.2,12.2,0,0,0,1.06-2.12h-11.4V30.85h11.79V24.07H524.11V21.39h4.38l-.92-2.93,2.58-.82,1.2,3.75h8.41l1.2-3.75,2.58.82-.92,2.93h5v2.68H537.21v6.78h11.84v2.69Z"/><path class="cls-2" d="M168.29,23.86l-.23-.41.23-.51a10,10,0,0,0,4.38-3.48,9,9,0,0,0,1.52-5.36c0-3.47-1.12-6.06-3.32-7.72a15.15,15.15,0,0,0-9.05-2.59H141.21V46.22h19.43a23.24,23.24,0,0,0,7.08-.92,14,14,0,0,0,4.83-2.46,8.76,8.76,0,0,0,2.72-3.67,12.46,12.46,0,0,0,.93-4.63,12.61,12.61,0,0,0-2-7.14A9.72,9.72,0,0,0,168.29,23.86ZM148,9.2h12.73a7.48,7.48,0,0,1,4.95,1.41c1.19,1,1.8,2.62,1.8,5a6.1,6.1,0,0,1-1.87,4.75,7.09,7.09,0,0,1-4.82,1.63H148ZM167.35,39a8,8,0,0,1-5.6,1.93H148V26.56h13.77a7.76,7.76,0,0,1,5.6,1.86,6.81,6.81,0,0,1,2,5.26A6.4,6.4,0,0,1,167.35,39Z"/><polygon class="cls-2" points="191.04 3.79 181.12 3.79 181.12 46.22 187.47 46.22 187.47 12.84 188.24 12.84 200.27 46.22 205.98 46.22 217.91 12.84 218.72 12.84 218.72 46.22 225.12 46.22 225.12 3.79 215.28 3.79 203.7 37.66 202.9 37.66 191.04 3.79"/><path class="cls-2" d="M246.43,3.79,230.12,46.22h6.95l4.07-11.44H259L263,46.22h7.23L253.91,3.79ZM243,29.87l6.84-19.39h.8l6.68,19.39Z"/><rect class="cls-2" x="273.59" y="3.79" width="6.77" height="42.43"/><polygon class="cls-2" points="294.55 40.52 294.55 3.79 287.85 3.79 287.85 46.22 316.56 46.22 316.56 40.52 294.55 40.52"/><path class="cls-2" d="M111.78,45.78a26.6,26.6,0,0,0,5,.44,24.9,24.9,0,0,0,7.07-1,13.94,13.94,0,0,0,5.4-3,13.17,13.17,0,0,0,3.44-5,17.94,17.94,0,0,0,1.19-7.07V3.79h-6.62v24c0,1.46-.08,3-.22,4.39a10.09,10.09,0,0,1-1.14,3.9A19.42,19.42,0,0,1,111.78,45.78Z"/><path class="cls-2" d="M107.75,36.32c-1.59-2.79-1.47-7.08-1.47-8.49v-24h-6.7V30.33a19.61,19.61,0,0,0,1.19,7.07,14.2,14.2,0,0,0,3.44,5c2.33,2.12,10,1.09,14.1-1.87C111.14,41.11,108.89,38,107.75,36.32Z"/><path class="cls-2" d="M86.26,16.27s0-7.23-8.66-7.19c0,0-9.19-.46-8.11,6.65,0,0-.31,4.33,10.06,5.88,0,0,11.76,1.7,13.7,8,0,0,3.64,8.74-5.3,14.2a22.25,22.25,0,0,1-20.25-.14,13.31,13.31,0,0,1-6.45-11.64h6.59s-.47,8.38,10,8.77c0,0,10.36.42,9.49-7.78,0,0,.09-3.75-6.45-5,0,0-11.38-2.28-13.7-4.35,0,0-6.41-3.54-3.74-12.16,0,0,2.12-7.15,12.63-7.78,0,0,16-1.41,16.86,12.45Z"/><path class="cls-3" d="M38.16,44.6a15.88,15.88,0,0,1-11.51.12s-1.35-.54-2-.86A21.1,21.1,0,0,1,14.33,17.64a19.84,19.84,0,0,0-6.88,7.69c-.26.53-.74,1.7-.8,1.85a14.41,14.41,0,0,0,.11,10.44,19.41,19.41,0,0,0,2,3.79A19.61,19.61,0,0,0,25,50a24.84,24.84,0,0,0,17.68-7.32,25.65,25.65,0,0,0,1.78-2,22.09,22.09,0,0,1-2.22,1.74A20.43,20.43,0,0,1,38.16,44.6Z"/><path class="cls-4" d="M43.24,12.38a19.41,19.41,0,0,0-2-3.79A19.61,19.61,0,0,0,25,0,24.84,24.84,0,0,0,7.32,7.32a25.65,25.65,0,0,0-1.78,2A22.09,22.09,0,0,1,7.76,7.56,20.43,20.43,0,0,1,11.84,5.4a16.1,16.1,0,0,1,5.93-1.14,15.78,15.78,0,0,1,5.58,1s1.33.53,2,.86A21,21,0,0,1,31,10.27a21.09,21.09,0,0,1,4.69,22.09,19.84,19.84,0,0,0,6.88-7.69c.25-.5.7-1.59.8-1.86A14.39,14.39,0,0,0,43.24,12.38Z"/><path class="cls-5" d="M42.68,7.32a25.65,25.65,0,0,0-2-1.78,22.09,22.09,0,0,1,1.74,2.22,20.43,20.43,0,0,1,2.16,4.08,15.88,15.88,0,0,1,.12,11.51s-.54,1.34-.86,2A21,21,0,0,1,39.73,31a21.09,21.09,0,0,1-22.09,4.69,19.84,19.84,0,0,0,7.69,6.88c.57.28,1.85.8,1.86.8a14.12,14.12,0,0,0,9.57.2,19.29,19.29,0,0,0,4.65-2.33A19.61,19.61,0,0,0,50,25,24.84,24.84,0,0,0,42.68,7.32Z"/><path class="cls-6" d="M24.67,7.45c-.53-.26-1.7-.74-1.85-.8a14.33,14.33,0,0,0-5.05-.92,14.62,14.62,0,0,0-5.39,1,19.41,19.41,0,0,0-3.79,2A19.61,19.61,0,0,0,0,25,24.84,24.84,0,0,0,7.32,42.68c.63.63,1.29,1.22,2,1.78a23.54,23.54,0,0,1-1.73-2.22,20.89,20.89,0,0,1-2.5-5,15.55,15.55,0,0,1,.22-10.59c0-.07.55-1.36.86-2A21.1,21.1,0,0,1,32.36,14.33a19.84,19.84,0,0,0-7.69-6.88Z"/><rect class="cls-2" x="331.37" y="3.79" width="1.43" height="42.43"/></g></g></svg>