<svg xmlns="http://www.w3.org/2000/svg" viewBox="0 0 480 50"><defs><style>.cls-1{fill:#222;}.cls-2{fill:#ff2c89;}.cls-3{fill:#006aff;}.cls-4{fill:#00ffb5;}.cls-5{fill:#ff003f;}</style></defs><g id="图层_2" data-name="图层 2"><g id="图层_1-2" data-name="图层 1"><path class="cls-1" d="M168.29,23.86l-.23-.41.23-.51a10,10,0,0,0,4.38-3.48,9,9,0,0,0,1.52-5.36c0-3.47-1.12-6.06-3.32-7.72a15.15,15.15,0,0,0-9.05-2.59H141.21V46.22h19.43a23.24,23.24,0,0,0,7.08-.92,14,14,0,0,0,4.83-2.46,8.76,8.76,0,0,0,2.72-3.67,12.46,12.46,0,0,0,.93-4.63,12.61,12.61,0,0,0-2-7.14A9.72,9.72,0,0,0,168.29,23.86ZM148,9.2h12.73a7.48,7.48,0,0,1,4.95,1.41c1.19,1,1.8,2.62,1.8,5a6.1,6.1,0,0,1-1.87,4.75,7.09,7.09,0,0,1-4.82,1.63H148ZM167.35,39a8,8,0,0,1-5.6,1.93H148V26.56h13.77a7.76,7.76,0,0,1,5.6,1.86,6.81,6.81,0,0,1,2,5.26A6.4,6.4,0,0,1,167.35,39Z"/><polygon class="cls-1" points="191.04 3.79 181.12 3.79 181.12 46.22 187.47 46.22 187.47 12.84 188.24 12.84 200.27 46.22 205.98 46.22 217.91 12.84 218.72 12.84 218.72 46.22 225.12 46.22 225.12 3.79 215.28 3.79 203.7 37.66 202.9 37.66 191.04 3.79"/><path class="cls-1" d="M246.43,3.79,230.12,46.22h6.95l4.07-11.44H259L263,46.22h7.23L253.91,3.79ZM243,29.87l6.84-19.39h.8l6.68,19.39Z"/><rect class="cls-1" x="273.59" y="3.79" width="6.77" height="42.43"/><polygon class="cls-1" points="294.55 40.52 294.55 3.79 287.85 3.79 287.85 46.22 316.56 46.22 316.56 40.52 294.55 40.52"/><path class="cls-1" d="M111.78,45.78a26.6,26.6,0,0,0,5,.44,24.9,24.9,0,0,0,7.07-1,13.94,13.94,0,0,0,5.4-3,13.17,13.17,0,0,0,3.44-5,17.94,17.94,0,0,0,1.19-7.07V3.79h-6.62v24c0,1.46-.08,3-.22,4.39a10.09,10.09,0,0,1-1.14,3.9A19.42,19.42,0,0,1,111.78,45.78Z"/><path class="cls-1" d="M107.75,36.32c-1.59-2.79-1.47-7.08-1.47-8.49v-24h-6.7V30.33a19.61,19.61,0,0,0,1.19,7.07,14.2,14.2,0,0,0,3.44,5c2.33,2.12,10,1.09,14.1-1.87C111.14,41.11,108.89,38,107.75,36.32Z"/><path class="cls-1" d="M86.26,16.27s0-7.23-8.66-7.19c0,0-9.19-.46-8.11,6.65,0,0-.31,4.33,10.06,5.88,0,0,11.76,1.7,13.7,8,0,0,3.64,8.74-5.3,14.2a22.25,22.25,0,0,1-20.25-.14,13.31,13.31,0,0,1-6.45-11.64h6.59s-.47,8.38,10,8.77c0,0,10.36.42,9.49-7.78,0,0,.09-3.75-6.45-5,0,0-11.38-2.28-13.7-4.35,0,0-6.41-3.54-3.74-12.16,0,0,2.12-7.15,12.63-7.78,0,0,16-1.41,16.86,12.45Z"/><path class="cls-2" d="M38.16,44.6a15.88,15.88,0,0,1-11.51.12s-1.35-.54-2-.86A21.1,21.1,0,0,1,14.33,17.64a19.84,19.84,0,0,0-6.88,7.69c-.26.53-.74,1.7-.8,1.85a14.41,14.41,0,0,0,.11,10.44,19.41,19.41,0,0,0,2,3.79A19.61,19.61,0,0,0,25,50a24.84,24.84,0,0,0,17.68-7.32,25.65,25.65,0,0,0,1.78-2,22.09,22.09,0,0,1-2.22,1.74A20.43,20.43,0,0,1,38.16,44.6Z"/><path class="cls-3" d="M43.24,12.38a19.41,19.41,0,0,0-2-3.79A19.61,19.61,0,0,0,25,0,24.84,24.84,0,0,0,7.32,7.32a25.65,25.65,0,0,0-1.78,2A22.09,22.09,0,0,1,7.76,7.56,20.43,20.43,0,0,1,11.84,5.4a16.1,16.1,0,0,1,5.93-1.14,15.78,15.78,0,0,1,5.58,1s1.33.53,2,.86A21,21,0,0,1,31,10.27a21.09,21.09,0,0,1,4.69,22.09,19.84,19.84,0,0,0,6.88-7.69c.25-.5.7-1.59.8-1.86A14.39,14.39,0,0,0,43.24,12.38Z"/><path class="cls-4" d="M42.68,7.32a25.65,25.65,0,0,0-2-1.78,22.09,22.09,0,0,1,1.74,2.22,20.43,20.43,0,0,1,2.16,4.08,15.88,15.88,0,0,1,.12,11.51s-.54,1.34-.86,2A21,21,0,0,1,39.73,31a21.09,21.09,0,0,1-22.09,4.69,19.84,19.84,0,0,0,7.69,6.88c.57.28,1.85.8,1.86.8a14.12,14.12,0,0,0,9.57.2,19.29,19.29,0,0,0,4.65-2.33A19.61,19.61,0,0,0,50,25,24.84,24.84,0,0,0,42.68,7.32Z"/><path class="cls-5" d="M24.67,7.45c-.53-.26-1.7-.74-1.85-.8a14.33,14.33,0,0,0-5.05-.92,14.62,14.62,0,0,0-5.39,1,19.41,19.41,0,0,0-3.79,2A19.61,19.61,0,0,0,0,25,24.84,24.84,0,0,0,7.32,42.68c.63.63,1.29,1.22,2,1.78a23.54,23.54,0,0,1-1.73-2.22,20.89,20.89,0,0,1-2.5-5,15.55,15.55,0,0,1,.22-10.59c0-.07.55-1.36.86-2A21.1,21.1,0,0,1,32.36,14.33a19.84,19.84,0,0,0-7.69-6.88Z"/><path class="cls-1" d="M371.16,19.63a1.3,1.3,0,0,1,.95.39,1.28,1.28,0,0,1,.39.95V45.2h-2.69v-1H350.28v1H347.6V21A1.28,1.28,0,0,1,348,20a1.3,1.3,0,0,1,.95-.39Zm-1.35,21.82V22.31H350.28V41.45Zm-1.65-4.06v2.69H351.91V37.39h6.78V32.45h-5.83V29.76h5.83V26.37h-6.36V23.65h15.44v2.72h-6.4v3.39h5.83v2.69h-5.83v4.94H364l-1.35-3.11,2.48-1.06L366.71,37l-1,.42Z"/><path class="cls-1" d="M389.2,29.41a9.68,9.68,0,0,1,.73,1.29,12.75,12.75,0,0,1,.72,1.85,10.89,10.89,0,0,1,.42,2.19,6,6,0,0,1-.24,2.33c-.64,2.12-2.26,3.65-4.88,4.59l-.91-2.5a4.84,4.84,0,0,0,3.21-2.83,3.83,3.83,0,0,0,.12-1.69,8.47,8.47,0,0,0-.42-1.72,9.68,9.68,0,0,0-.67-1.48,10.13,10.13,0,0,0-.62-1,1.38,1.38,0,0,1-.21-1.13l1.76-7h-3.49V46.08H382V21a1.34,1.34,0,0,1,.39-1,1.28,1.28,0,0,1,1-.41h6.53a1.32,1.32,0,0,1,1.06.53,1.28,1.28,0,0,1,.25,1.17Zm6.64,3.53c0,.07-.06.54-.19,1.42s-.33,1.91-.6,3.12A38.24,38.24,0,0,1,394,41.31a17.05,17.05,0,0,1-1.66,3.6L390,43.47a14,14,0,0,0,1.49-3.23c.4-1.24.72-2.42,1-3.54s.42-2.06.53-2.84.16-1.18.16-1.2Zm5.4-3.28V41.91a3.27,3.27,0,0,1-.6,2,5.07,5.07,0,0,1-1.48,1.36,7.93,7.93,0,0,1-1.89.81,9.31,9.31,0,0,1-1.82.35l-.24-2.68.81-.14a5.4,5.4,0,0,0,1.13-.34,3.93,3.93,0,0,0,1-.56,1,1,0,0,0,.42-.8V29.66h-7.38V27h17.55v2.69Zm5.9-6.29H392.7V20.69h14.44Zm-.56,9.29s.05.42.16,1.2.28,1.73.53,2.84.56,2.3,1,3.54a13.56,13.56,0,0,0,1.47,3.23l-2.26,1.44a17.6,17.6,0,0,1-1.68-3.6,36.06,36.06,0,0,1-1.1-3.83c-.27-1.21-.46-2.25-.58-3.12s-.18-1.35-.18-1.42Z"/><path class="cls-1" d="M441.79,19.49a1.3,1.3,0,0,1,.95.39,1.27,1.27,0,0,1,.39.95V41.21a3.61,3.61,0,0,1-.56,2,5.79,5.79,0,0,1-1.42,1.46,7.17,7.17,0,0,1-1.8,1,10.27,10.27,0,0,1-1.73.49l-.49-2.65a5,5,0,0,0,.79-.21,7,7,0,0,0,1.11-.48,4.58,4.58,0,0,0,1-.69,1.2,1.2,0,0,0,.43-.91v-19h-19v23.2h-2.72V20.83a1.25,1.25,0,0,1,.41-.95,1.34,1.34,0,0,1,1-.39Zm-11,4.73c0,.07-.1.35-.23.85L430,27c-.22.81-.51,1.76-.85,2.84s-.73,2.25-1.18,3.5L430.42,41l-2.55.82-1.41-4.38c-.33.82-.67,1.64-1,2.45s-.73,1.63-1.13,2.46l-2.41-1.17c.64-1.32,1.22-2.64,1.75-4s1-2.63,1.5-3.9l-2.89-9,2.58-.81L426.6,29c.5-1.6.88-2.9,1.15-3.89s.41-1.49.41-1.52Zm5.86,17.59-1.38-4.35c-.33.8-.67,1.61-1,2.42s-.73,1.63-1.13,2.46l-2.44-1.17c.64-1.32,1.23-2.64,1.77-4s1-2.62,1.48-3.89l-2.86-9,2.54-.81L435.36,29q.78-2.4,1.17-3.9c.25-1,.38-1.51.38-1.54l2.65.64c0,.07-.1.35-.23.85s-.3,1.14-.53,2-.5,1.76-.84,2.86-.74,2.26-1.19,3.51L439.21,41Z"/><path class="cls-1" d="M467.6,33.76a13.79,13.79,0,0,0,1.06,2.11,12.15,12.15,0,0,0,2.18,2.58,21.75,21.75,0,0,0,3.65,2.7A29.49,29.49,0,0,0,480,43.68l-.88,2.51a33.86,33.86,0,0,1-5.21-2.3,27.51,27.51,0,0,1-3.8-2.52,17.23,17.23,0,0,1-2.61-2.57,14.38,14.38,0,0,1-1.63-2.4,14.91,14.91,0,0,1-1.62,2.4,17.71,17.71,0,0,1-2.61,2.57,27.51,27.51,0,0,1-3.8,2.52,34.3,34.3,0,0,1-5.21,2.3l-.88-2.51a29.25,29.25,0,0,0,5.54-2.53,21.23,21.23,0,0,0,3.64-2.7,12.51,12.51,0,0,0,3.21-4.69h-11.4V31.07h11.79V24.29H454.11V21.61h4.38l-.92-2.94,2.58-.81,1.2,3.75h8.41l1.2-3.75,2.58.81-.92,2.94h5v2.68H467.21v6.78h11.84v2.69Z"/><rect class="cls-1" x="331.37" y="3.79" width="1.43" height="42.43"/></g></g></svg>