<svg width="40" height="41" viewBox="0 0 40 41" fill="none" xmlns="http://www.w3.org/2000/svg">
<path d="M30.5038 36.1879C27.5573 37.3684 24.2755 37.399 21.3076 36.2738C21.3076 36.2738 20.2358 35.8447 19.7213 35.5872C18.0402 34.746 16.5114 33.6293 15.1983 32.2834C13.9802 31.034 12.9608 29.605 12.1758 28.0463C11.0067 25.7161 10.3974 23.1449 10.3966 20.5375C10.395 18.5292 10.7582 16.5374 11.4684 14.6592C10.5915 15.2195 9.77279 15.8664 9.02466 16.59C7.77941 17.814 6.74379 19.2346 5.95928 20.7949C5.74491 21.224 5.35906 22.1572 5.31619 22.2752C4.30435 24.9566 4.31962 27.9178 5.35906 30.5885C6.52043 33.5096 8.52998 36.0153 11.1283 37.782C13.7266 39.5488 16.7944 40.4956 19.9357 40.5001C22.5619 40.5073 25.1635 39.9934 27.5901 38.9881C30.0167 37.9828 32.2201 36.5061 34.0729 34.6433C34.5726 34.1436 35.0449 33.6172 35.4877 33.0664C34.9308 33.5679 34.3399 34.0303 33.7192 34.4502C32.713 35.1436 31.635 35.7262 30.5038 36.1879Z" fill="#FF2C89"/>
<path d="M34.5554 10.4117C33.4027 7.48464 31.3952 4.97327 28.795 3.20518C26.1947 1.4371 23.1224 0.494402 19.9787 0.500069C17.3541 0.493148 14.7542 1.00722 12.3294 2.01255C9.90461 3.01787 7.7031 4.49448 5.85227 6.35692C5.34852 6.86109 4.87692 7.42961 4.42676 7.93377C4.98951 7.43475 5.58381 6.97254 6.20596 6.55001C7.2247 5.84642 8.3173 5.2565 9.46427 4.79081C10.9734 4.19718 12.5802 3.89156 14.2017 3.88975C15.7241 3.88855 17.2343 4.16104 18.6604 4.69426C18.6604 4.69426 19.7322 5.12334 20.2467 5.39151C23.4867 7.02547 26.1167 9.65764 27.7494 12.9003C28.9189 15.2303 29.5281 17.8016 29.5286 20.4091C29.5309 22.4209 29.1678 24.4164 28.4568 26.2981C29.3291 25.7365 30.1409 25.0858 30.8791 24.3566C32.131 23.1359 33.1706 21.7148 33.9552 20.1516C34.1588 19.7547 34.5125 18.8751 34.5982 18.6606C35.6018 15.9999 35.5865 13.0618 34.5554 10.4117Z" fill="#0074D7"/>
<path d="M34.1157 6.35735C33.6165 5.85723 33.0905 5.38455 32.5402 4.94141C33.0413 5.49878 33.5033 6.09016 33.9228 6.71134C34.6157 7.71833 35.1978 8.79727 35.6592 9.92939C36.8369 12.8779 36.8713 16.1604 35.7556 19.133C35.7556 19.133 35.3162 20.2057 35.0589 20.7206C33.4263 23.9632 30.7963 26.5954 27.5563 28.2294C25.228 29.3995 22.6589 30.0092 20.0536 30.01C18.047 30.0116 16.0568 29.6481 14.1801 28.9374C14.7222 29.842 15.3581 30.6869 16.0772 31.4582C17.2968 32.7111 18.7168 33.7516 20.2787 34.5368C20.7395 34.762 21.7578 35.1804 21.7685 35.1804C24.2233 36.1219 26.929 36.1787 29.4212 35.3413C30.7373 34.8848 31.9877 34.2573 33.1404 33.4748C35.2553 32.0358 36.9861 30.1006 38.1818 27.8382C39.3774 25.5757 40.0017 23.0548 40 20.4953C40.0027 17.8663 39.484 15.2629 38.4739 12.836C37.4638 10.4091 35.9825 8.20703 34.1157 6.35735Z" fill="#00FFB5"/>
<path d="M19.7214 6.46488C19.2927 6.25034 18.3602 5.86418 18.2209 5.86418C16.93 5.37402 15.5608 5.12321 14.1801 5.12403C12.7121 5.12982 11.2581 5.40994 9.89289 5.94999C6.98295 7.11127 4.48629 9.11659 2.72351 11.7084C0.960737 14.3003 0.0123266 17.3603 7.36631e-05 20.4956C-0.00707693 23.124 0.506431 25.7277 1.51091 28.1562C2.51539 30.5848 3.99091 32.79 5.85216 34.6443C6.35141 35.1444 6.87737 35.6171 7.42773 36.0602C6.92663 35.5029 6.46465 34.9115 6.04509 34.2903C5.19803 33.0542 4.5237 31.708 4.0408 30.2892C3.11061 27.5343 3.17127 24.5406 4.21229 21.8257C4.21229 21.7614 4.65174 20.753 4.90897 20.2381C6.5416 16.9955 9.17163 14.3633 12.4116 12.7294C14.4795 11.6946 16.7379 11.0968 19.0465 10.9731C21.3551 10.8495 23.6644 11.2027 25.8307 12.0107C25.2669 11.1363 24.617 10.3205 23.8908 9.57566C22.6808 8.31698 21.2722 7.26603 19.7214 6.46488Z" fill="#FF003F"/>
</svg>
